<?xml version="1.0" encoding="UTF-8"?>
<svg version="1.1" xmlns="http://www.w3.org/2000/svg" width="2000" height="1500">
<path d="M0 0 C660 0 1320 0 2000 0 C2000 495 2000 990 2000 1500 C1340 1500 680 1500 0 1500 C0 1005 0 510 0 0 Z " fill="#000000" transform="translate(0,0)"/>
<path d="M0 0 C1.01506119 0.00697906 1.01506119 0.00697906 2.05062866 0.01409912 C12.18349361 0.09561711 21.76470619 0.56502667 31.5625 3.375 C32.62500977 3.67301514 32.62500977 3.67301514 33.70898438 3.97705078 C49.84411413 8.59945383 63.55312806 15.71428759 76.5625 26.375 C77.42488281 27.07238281 78.28726562 27.76976562 79.17578125 28.48828125 C89.28563599 37.08873311 97.81355376 48.38216513 103.5625 60.375 C103.5625 61.365 103.5625 62.355 103.5625 63.375 C104.51769531 62.90449219 105.47289062 62.43398438 106.45703125 61.94921875 C127.65623262 51.67432027 149.7987855 48.88108899 172.4453125 56.6640625 C192.48414891 64.01020876 207.2927407 76.98003206 216.34375 96.46484375 C221.77620025 109.4365599 221.49360167 122.62368728 219.5625 136.375 C220.779375 136.436875 221.99625 136.49875 223.25 136.5625 C241.01693336 138.57069341 256.42678396 149.659052 267.73046875 162.91796875 C279.16430701 178.39024878 282.03844271 194.60838838 280.5625 213.375 C277.56989007 230.20843085 267.00909518 244.84119942 253.71875 255.23828125 C238.3173265 265.66473998 223.08614493 269.52496562 204.66648865 269.52217102 C203.36364884 269.52584771 202.06080903 269.5295244 200.71848923 269.5333125 C197.11282808 269.54328759 193.50718358 269.54704201 189.9015106 269.54970181 C186.00834349 269.55361817 182.11518939 269.56319543 178.22203064 269.57191467 C168.82621199 269.59163995 159.43039232 269.60173958 150.03455815 269.61064246 C145.6047902 269.61503119 141.17502344 269.62039642 136.74525642 269.62563133 C122.01167137 269.64263849 107.27808704 269.65713193 92.54449368 269.66438007 C88.72456804 269.66628981 84.90464241 269.66821017 81.0847168 269.67016602 C80.13535093 269.67064976 79.18598506 269.6711335 78.20785052 269.6716319 C62.83384974 269.67992963 47.45992682 269.70526452 32.08596002 269.73774669 C16.28583587 269.77085596 0.48575125 269.78883226 -15.31440777 269.79202431 C-24.17916793 269.79418566 -33.04381447 269.80287938 -41.90854073 269.82848549 C-49.45886706 269.85024526 -57.00905215 269.85821699 -64.55940629 269.84851871 C-68.4072811 269.84398944 -72.25486483 269.84577949 -76.10269928 269.86528015 C-80.28620281 269.88629768 -84.46906742 269.87587732 -88.65260315 269.86274719 C-90.4519264 269.87920106 -90.4519264 269.87920106 -92.28759962 269.89598733 C-103.73411108 269.80969542 -114.54140008 266.93185901 -124.6875 261.625 C-125.356604 261.28065918 -126.02570801 260.93631836 -126.71508789 260.58154297 C-132.53778948 257.49137263 -137.62995056 253.90470507 -142.4375 249.375 C-143.20449219 248.66085937 -143.97148438 247.94671875 -144.76171875 247.2109375 C-157.79400514 233.97951601 -162.78377968 217.09183839 -162.81811523 198.97460938 C-162.54215555 182.10085349 -155.03325932 168.01006386 -143.5625 155.9375 C-134.28872762 147.18053227 -118.97508275 136.65818822 -105.67578125 136.30078125 C-104.93714844 136.32527344 -104.19851563 136.34976563 -103.4375 136.375 C-103.70304688 135.62476563 -103.96859375 134.87453125 -104.2421875 134.1015625 C-104.59539063 133.07804688 -104.94859375 132.05453125 -105.3125 131 C-105.66054688 130.00226563 -106.00859375 129.00453125 -106.3671875 127.9765625 C-113.61159278 103.59940313 -110.21254341 77.66390197 -98.4375 55.375 C-93.70779917 47.18006938 -87.96473748 40.19156539 -81.4375 33.375 C-80.81359375 32.68792969 -80.1896875 32.00085938 -79.546875 31.29296875 C-59.57203268 10.01724384 -28.54872827 -0.31025412 0 0 Z " fill="#EDE7A9" transform="translate(1061.4375,420.625)"/>
<path d="M0 0 C54.78 0 109.56 0 166 0 C166 28.05 166 56.1 166 85 C111.22 85 56.44 85 0 85 C0 56.95 0 28.9 0 0 Z " fill="#ECE6A8" transform="translate(1141,857)"/>
<path d="M0 0 C54.78 0 109.56 0 166 0 C166 28.05 166 56.1 166 85 C111.22 85 56.44 85 0 85 C0 56.95 0 28.9 0 0 Z " fill="#ECE6A8" transform="translate(690,857)"/>
<path d="M0 0 C54.78 0 109.56 0 166 0 C166 27.72 166 55.44 166 84 C111.22 84 56.44 84 0 84 C0 56.28 0 28.56 0 0 Z " fill="#EDE7A9" transform="translate(917,857)"/>
<path d="M0 0 C31.35 0 62.7 0 95 0 C99.85776533 38.86212263 99.85776533 38.86212263 101 58 C101.05784668 58.95600098 101.11569336 59.91200195 101.17529297 60.89697266 C102.10539738 76.95714343 102 92.88484709 102 109 C66.03 109 30.06 109 -7 109 C-7 65.05259423 -7 65.05259423 -5.45581055 47.44238281 C-5.18151206 44.30654464 -4.932039 41.16938635 -4.68554688 38.03125 C-4.5144147 35.94519768 -4.34194057 33.85925492 -4.16796875 31.7734375 C-4.09595749 30.88030853 -4.02394623 29.98717957 -3.94975281 29.06698608 C-3.07809479 19.2770887 -1.46712472 9.78083144 0 0 Z " fill="#EDE7A9" transform="translate(794,381)"/>
<path d="M0 0 C35.97 0 71.94 0 109 0 C109.268125 8.37375 109.53625 16.7475 109.8125 25.375 C110.54919893 46.68525698 111.77838708 67.79470465 114 89 C114.99 98.9 114.99 98.9 116 109 C84.98 109 53.96 109 22 109 C16.10602493 94.85445983 16.10602493 94.85445983 14 88.4375 C13.62609131 87.29897583 13.62609131 87.29897583 13.24462891 86.13745117 C8.29765322 70.81063235 4.92894174 55.41451725 2.40673828 39.51318359 C2.06749376 37.41703529 1.6924502 35.32672056 1.30859375 33.23828125 C-0.64372735 21.9202799 0 11.96468311 0 0 Z " fill="#EDE7A9" transform="translate(666,503)"/>
<path d="M0 0 C0.87537415 0.00359528 1.75074829 0.00719055 2.65264893 0.01089478 C4.02812141 0.01067574 4.02812141 0.01067574 5.43138123 0.01045227 C8.47773564 0.01115177 11.52402973 0.01894589 14.57037354 0.02676392 C16.67644721 0.02862796 18.78252132 0.03005193 20.88859558 0.03105164 C26.44364612 0.03487786 31.99867069 0.04470903 37.55371094 0.05575562 C43.21746469 0.0659675 48.88122262 0.07054878 54.54498291 0.07559204 C65.66673914 0.0863312 76.78847606 0.10340887 87.91021729 0.12442017 C87.59943637 3.45010395 87.28627386 6.77555953 86.97271729 10.10098267 C86.88570557 11.03241089 86.79869385 11.96383911 86.70904541 12.92349243 C86.18566349 18.46019467 85.59224391 23.98000912 84.91021729 29.49942017 C81.86864826 55.92621102 81.59127465 82.56318308 80.91021729 109.12442017 C44.94021729 109.12442017 8.97021729 109.12442017 -28.08978271 109.12442017 C-28.08978271 96.88210351 -28.07690596 85.69967625 -26.40228271 73.74942017 C-26.31330719 73.09353912 -26.22433167 72.43765808 -26.13265991 71.76190186 C-16.36833645 0.02839937 -16.36833645 0.02839937 0 0 Z " fill="#EDE7A9" transform="translate(694.0897827148438,380.8755798339844)"/>
<path d="M0 0 C35.97 0 71.94 0 109 0 C109 37.44539963 109 37.44539963 107.88305664 53.25561523 C107.68117774 56.15324529 107.50514935 59.05180983 107.33007812 61.95117188 C107.20462193 63.8334337 107.07772969 65.71560052 106.94921875 67.59765625 C106.89908127 68.44546158 106.84894379 69.29326691 106.79728699 70.16676331 C106.29886971 76.80658075 104.36020713 81.81487186 101.0625 87.61328125 C100.72476563 88.22236328 100.38703125 88.83144531 100.0390625 89.45898438 C99.35134702 90.68575504 98.65869987 91.90977522 97.9609375 93.13085938 C95.01634401 98.47495939 93.85039276 102.83202413 92 109 C63.95 109 35.9 109 7 109 C6.15705924 106.47117773 5.77843812 104.58895687 5.53515625 101.97851562 C5.45837646 101.17337524 5.38159668 100.36823486 5.30249023 99.53869629 C5.22329346 98.66998901 5.14409668 97.80128174 5.0625 96.90625 C4.97750244 96.00434937 4.89250488 95.10244873 4.80493164 94.17321777 C4.53330199 91.28244474 4.26660241 88.39124057 4 85.5 C3.82063345 83.58330327 3.64094944 81.66663622 3.4609375 79.75 C3.11681604 76.08072219 2.77641507 72.41113048 2.43920898 68.74121094 C2.19266005 66.06103288 1.93856143 63.38241194 1.67211914 60.70410156 C0.95158482 53.3953452 0.67115406 46.08903573 0.4375 38.75 C0.39431641 37.56148437 0.35113281 36.37296875 0.30664062 35.1484375 C-0.08074309 23.41624487 0 11.76014947 0 0 Z " fill="#EDE7A9" transform="translate(787,503)"/>
<path d="M0 0 C0 3.3 0 6.6 0 10 C-0.72445312 10.03738281 -1.44890625 10.07476563 -2.1953125 10.11328125 C-10.79814215 10.58854769 -10.79814215 10.58854769 -18 15 C-18.13646817 29.84773636 -12.88873774 44.64009687 -8.70849609 58.7097168 C-6.66109634 65.62770987 -4.77859025 72.57094499 -3 79.5625 C-0.23248065 90.41737809 2.98586481 101.1126417 6.33911133 111.79956055 C6.95641865 113.85489519 7.49858829 115.9137107 8 118 C13.18579385 106.1983511 17.45786173 94.04074839 21.875 81.9375 C23.0488217 78.72926429 24.22337946 75.52130044 25.39874268 72.31362915 C26.16586863 70.21568812 26.93017837 68.11671505 27.69158936 66.01669312 C29.45562403 61.15966125 31.2514767 56.32422428 33.16503906 51.52392578 C33.49819122 50.67230362 33.83134338 49.82068146 34.17459106 48.94325256 C34.78807337 47.38150939 35.41638029 45.82545904 36.06344604 44.27732849 C39.17965238 36.26181038 37.5931753 28.95835068 34.2109375 21.234375 C32.29849669 17.70561324 30.47390446 16.02118078 27 14 C23.35874184 13.05076167 19.73428247 12.44519026 16 12 C15.875 5.375 15.875 5.375 17 2 C18.04865234 1.97494385 19.09730469 1.9498877 20.17773438 1.92407227 C24.0990651 1.82931227 28.02024672 1.72926412 31.94140625 1.62768555 C33.63277681 1.58459433 35.32418368 1.54290324 37.015625 1.50268555 C39.45844427 1.44435171 41.90108505 1.38084551 44.34375 1.31640625 C45.08991577 1.29969376 45.83608154 1.28298126 46.6048584 1.26576233 C51.46521117 1.13114902 56.18009721 0.63838074 61 0 C63.16587688 -0.06209509 65.33337306 -0.08712076 67.5 -0.0625 C68.5415625 -0.05347656 69.583125 -0.04445313 70.65625 -0.03515625 C71.81640625 -0.01775391 71.81640625 -0.01775391 73 0 C73 3.3 73 6.6 73 10 C72.27554688 10.03738281 71.55109375 10.07476563 70.8046875 10.11328125 C62.20185785 10.58854769 62.20185785 10.58854769 55 15 C54.46353778 21.56484272 56.10366954 27.53680889 57.6875 33.875 C58.09742188 35.54828369 58.09742188 35.54828369 58.515625 37.25537109 C60.21318121 44.09790434 62.0517469 50.87765771 64.10864258 57.62011719 C65.86693236 63.41392864 67.37922572 69.25854582 68.875 75.125 C71.67661004 86.06890396 74.92056474 96.8515748 78.27539062 107.63671875 C79.22870241 110.74590275 80.12253162 113.86864225 81 117 C83.30875626 114.69124374 83.87872482 113.00247516 84.98022461 109.94067383 C85.36534714 108.8786676 85.75046967 107.81666138 86.14726257 106.72247314 C86.76852776 104.98232941 86.76852776 104.98232941 87.40234375 103.20703125 C87.83646072 102.00512146 88.2705777 100.80321167 88.71784973 99.56488037 C89.88968558 96.31972425 91.05441913 93.07206495 92.21720886 89.82365799 C93.41390904 86.48229643 94.61499108 83.14251009 95.81542969 79.80249023 C97.23885644 75.8408795 98.66133519 71.87893547 100.08047485 67.91578674 C102.62449444 60.81303673 105.19338853 53.72034957 107.80078125 46.640625 C108.55816172 44.56830839 109.31407459 42.49546714 110.06887817 40.42221069 C110.72612171 38.62769642 111.39591162 36.83779256 112.06616211 35.0480957 C115.64663069 25.26734703 115.64663069 25.26734703 116 15 C113.2371169 12.09817423 110.93299253 11.60771319 107.015625 11.48828125 C106.08105469 11.45283203 105.14648438 11.41738281 104.18359375 11.38085938 C102.73146484 11.34702148 102.73146484 11.34702148 101.25 11.3125 C100.26644531 11.27833984 99.28289062 11.24417969 98.26953125 11.20898438 C95.84675142 11.12665691 93.4233942 11.06164775 91 11 C91.33 7.7 91.66 4.4 92 1 C103.65510054 0.92060107 115.28774367 1.17027948 126.9375 1.5 C128.69986467 1.548364 130.46223445 1.59654216 132.22460938 1.64453125 C136.48313466 1.76088594 140.74158359 1.87972924 145 2 C145.125 8.625 145.125 8.625 144 12 C142.906875 12.144375 141.81375 12.28875 140.6875 12.4375 C137.06877013 12.88288104 137.06877013 12.88288104 134 14 C132.93833293 16.08716866 132.93833293 16.08716866 132 19 C131.41834248 20.492715 130.83047503 21.98301613 130.23852539 23.47167969 C129.52467607 25.28832256 128.81106991 27.105061 128.09765625 28.921875 C127.70797165 29.91422653 127.31828705 30.90657806 126.91679382 31.92900085 C125.63165936 35.20252221 124.34700434 38.47623134 123.0625 41.75 C122.62192261 42.87270294 122.18134521 43.99540588 121.72741699 45.15213013 C113.87109767 65.17717025 106.07870302 85.22650216 98.32955933 105.29324341 C97.25756945 108.0612039 96.17743005 110.82587805 95.09643555 113.59033203 C93.65174831 117.29100664 92.25468035 121.00590802 90.88208008 124.73388672 C90.19372048 126.55834308 89.50517028 128.38272753 88.81640625 130.20703125 C88.51720276 131.04697128 88.21799927 131.88691132 87.909729 132.75230408 C86.39237708 136.71302905 85.55366757 138.60157951 82.02832031 141.13842773 C78.23403239 142.62307821 75.04842867 143 71 143 C70.73372803 142.06542969 70.46745605 141.13085938 70.19311523 140.16796875 C67.13661655 129.44305677 64.07190519 118.72050924 61 108 C60.49726562 106.24478027 60.49726562 106.24478027 59.984375 104.45410156 C57.27159335 95.00398392 54.50617823 85.57494421 51.5703125 76.19140625 C51.36227493 75.52574646 51.15423737 74.86008667 50.93989563 74.17425537 C49.91479034 70.89791651 48.88382654 67.6235904 47.84350586 64.35205078 C47.47362549 63.17755371 47.10374512 62.00305664 46.72265625 60.79296875 C46.39015869 59.7464917 46.05766113 58.70001465 45.71508789 57.62182617 C45 55 45 55 45 52 C42.10472749 53.44763626 42.03528054 55.19377278 40.98803711 58.22460938 C40.59680161 59.34508667 40.2055661 60.46556396 39.80247498 61.61999512 C39.38168167 62.84883423 38.96088837 64.07767334 38.52734375 65.34375 C38.08161902 66.62788155 37.63520051 67.91177247 37.18812561 69.19543457 C36.00316962 72.60315527 34.82681886 76.01378399 33.65246582 79.4251709 C32.49202872 82.79275659 31.32507522 86.15807733 30.15820312 89.5234375 C29.9304954 90.1809903 29.70278767 90.83854309 29.4681797 91.51602173 C28.32322275 94.82080725 27.17388189 98.12396373 26.01620483 101.42431641 C25.55860403 102.7307195 25.10121536 104.03719692 24.64404297 105.34375 C24.42042273 105.9827121 24.19680248 106.62167419 23.96640587 107.27999878 C22.45139217 111.63476984 21.02460097 116.01254394 19.62548828 120.40625 C19.24534073 121.55871216 18.86519318 122.71117432 18.473526 123.89855957 C17.76615184 126.04416028 17.08456554 128.19851282 16.43455505 130.36218262 C14.13410784 137.19627746 14.13410784 137.19627746 10.84860229 139.5246582 C6.70031711 141.43021785 2.55518638 142.5328014 -2 143 C-2.22550537 142.19502075 -2.22550537 142.19502075 -2.45556641 141.3737793 C-5.18938085 131.6421851 -7.96998631 121.93690272 -11.0625 112.3125 C-12.98477098 106.32295854 -14.78528373 100.31961411 -16.4375 94.25 C-19.38952902 83.42787349 -22.69116806 72.71749604 -26 62 C-26.37237793 60.79118164 -26.74475586 59.58236328 -27.12841797 58.33691406 C-28.11745817 55.12674522 -29.10857186 51.91722272 -30.10119629 48.7081604 C-30.66922102 46.87160032 -31.23647875 45.03480307 -31.80371094 43.19799805 C-32.85928446 39.79546291 -33.92535474 36.39655753 -35 33 C-35.35481445 31.87722656 -35.70962891 30.75445313 -36.07519531 29.59765625 C-36.4203418 28.5303125 -36.76548828 27.46296875 -37.12109375 26.36328125 C-37.42587646 25.41622314 -37.73065918 24.46916504 -38.04467773 23.4934082 C-39.86046862 18.7541615 -42.15324379 15.84308436 -46.875 13.6875 C-50.23915457 12.94738599 -53.58033955 12.41035925 -57 12 C-57.125 4.25 -57.125 4.25 -56 2 C-54.93152832 1.97494385 -53.86305664 1.9498877 -52.76220703 1.92407227 C-48.7551098 1.82909373 -44.74814994 1.72910318 -40.74121094 1.62768555 C-39.01500691 1.58467542 -37.28876954 1.54298052 -35.5625 1.50268555 C-23.198145 1.23623082 -23.198145 1.23623082 -10.87939453 0.20727539 C-7.24803807 -0.19322105 -3.64722543 -0.05882622 0 0 Z " fill="#E9E4A7" transform="translate(712,1016)"/>
<path d="M0 0 C31.02 0 62.04 0 94 0 C96.57908574 5.80294291 99.01977395 11.47269286 101.125 17.4375 C101.37636719 18.12392578 101.62773438 18.81035156 101.88671875 19.51757812 C103.80408515 24.92334673 104.99380898 30.35788243 106 36 C104.86304688 36.59425781 103.72609375 37.18851562 102.5546875 37.80078125 C75.65728007 52.12596995 53.32339926 73.2763019 43.5625 102.875 C43.13130859 104.32519531 43.13130859 104.32519531 42.69140625 105.8046875 C42 108 42 108 41 109 C38.47905924 109.08847743 35.98569107 109.11527301 33.46484375 109.09765625 C32.33496788 109.09553383 32.33496788 109.09553383 31.18226624 109.09336853 C28.7673044 109.08775376 26.35243399 109.07519883 23.9375 109.0625 C22.30403779 109.0574869 20.67057414 109.05292366 19.03710938 109.04882812 C15.02470415 109.03777954 11.01236759 109.02050506 7 109 C6.98382629 108.44846756 6.96765259 107.89693512 6.95098877 107.32868958 C6.19752101 82.02429956 5.25276831 56.77864375 2.9375 31.5625 C2.84964233 30.59970123 2.76178467 29.63690247 2.67126465 28.64492798 C2.42069701 25.93066896 2.16385765 23.21713101 1.90234375 20.50390625 C1.82634445 19.71038757 1.75034515 18.9168689 1.67204285 18.0993042 C1.37817818 15.16680866 1.06213355 12.28967486 0.44360352 9.40600586 C0 7 0 7 0 0 Z " fill="#ECE6A9" transform="translate(901,381)"/>
<path d="M0 0 C14.94844258 9.897835 21.88314458 33.39292789 26.5625 49.75 C26.79533691 50.56210937 27.02817383 51.37421875 27.26806641 52.2109375 C32.40422151 70.41942499 36.47234643 88.93861789 38.5625 107.75 C8.5325 107.75 -21.4975 107.75 -52.4375 107.75 C-49.07054252 74.08042522 -41.63019833 26.94269833 -16.4375 1.75 C-11.25130767 -2.48084111 -5.99108914 -2.17857787 0 0 Z " fill="#ECE6A8" transform="translate(848.4375,261.25)"/>
<path d="M0 0 C26.73 0 53.46 0 81 0 C81.99 5.94 82.98 11.88 84 18 C84.99 20.475 84.99 20.475 86 23 C87.81023327 47.23376792 73.30418711 84.84213268 57.7109375 103.29296875 C53.87558097 107.11956876 50.51300952 108.75983976 45.0625 109.625 C39.87796394 109.30471978 36.56991268 106.57711009 33 103 C21.18001244 89.32040233 16.32254402 70.87432124 11 54 C10.5978125 52.76636719 10.195625 51.53273438 9.78125 50.26171875 C4.75958226 34.00204459 2.39681013 16.77767094 0 0 Z " fill="#EDE7A9" transform="translate(796,624)"/>
<path d="M0 0 C0 3.3 0 6.6 0 10 C-3.36914062 11.02539062 -3.36914062 11.02539062 -6.73828125 12.05078125 C-9.22720124 13.09535389 -10.30240864 13.91821234 -12 16 C-15.0389168 25.68851077 -14.43352172 36.68542268 -14.625 46.75 C-14.66327834 48.42970555 -14.70233538 50.10939355 -14.7421875 51.7890625 C-14.83708934 55.85922861 -14.92149996 59.92948588 -15 64 C-7.70823656 63.88124561 -0.41659337 63.75645646 6.875 63.62768555 C9.34991173 63.58466462 11.82484691 63.5429702 14.29980469 63.50268555 C33.17278782 63.24263997 33.17278782 63.24263997 52 62 C52.10128827 55.36154183 52.17141794 48.72328234 52.21972656 42.08422852 C52.23986166 39.82503818 52.26717189 37.56590008 52.30175781 35.30688477 C52.35019162 32.06253179 52.37294976 28.81886683 52.390625 25.57421875 C52.41127014 24.56163498 52.43191528 23.54905121 52.45318604 22.50578308 C52.45348816 21.56503433 52.45379028 20.62428558 52.45410156 19.6550293 C52.46742523 18.41259712 52.46742523 18.41259712 52.48101807 17.14506531 C52.17314383 14.83404499 52.17314383 14.83404499 50.13275146 13.24104309 C47.57799575 11.75443671 45.68692297 11.50571862 42.75 11.3125 C41.85796875 11.24675781 40.9659375 11.18101563 40.046875 11.11328125 C39.37140625 11.07589844 38.6959375 11.03851562 38 11 C38.33 8.03 38.66 5.06 39 2 C40.38952881 1.96241577 40.38952881 1.96241577 41.80712891 1.92407227 C45.31485474 1.82771578 48.82248088 1.72857773 52.33007812 1.62768555 C53.83493072 1.58494133 55.33981332 1.54323809 56.84472656 1.50268555 C66.58936678 1.23922899 76.28114072 0.78877418 86 0 C85.67 3.3 85.34 6.6 85 10 C82.49348958 10.61848958 79.98697917 11.23697917 77.48046875 11.85546875 C74.24222219 13.34965181 73.57464153 14.83272441 72 18 C71.46158457 20.73390834 71.46158457 20.73390834 71.3840332 23.66845703 C71.29432503 25.35382568 71.29432503 25.35382568 71.20280457 27.07324219 C71.12755302 28.89710449 71.12755302 28.89710449 71.05078125 30.7578125 C70.98816605 32.03414551 70.92555084 33.31047852 70.86103821 34.62548828 C70.69354177 38.07760721 70.54505283 41.53028387 70.40210724 44.98349762 C70.31257276 47.12326102 70.21846836 49.26277706 70.12298584 51.40228271 C69.31318418 69.63733937 68.69867839 87.87021533 68.625 106.125 C68.61723541 107.02091858 68.60947083 107.91683716 68.60147095 108.83990479 C68.58416502 111.3337557 68.5884201 113.82645808 68.6015625 116.3203125 C68.59562576 117.03509766 68.58968903 117.74988281 68.58357239 118.48632812 C68.64432816 122.78538137 69.22681301 125.65659546 72 129 C74.91076834 129.54258401 77.27373662 129.78959706 80.1875 129.8125 C80.93708984 129.83763672 81.68667969 129.86277344 82.45898438 129.88867188 C84.30542621 129.94747576 86.15277002 129.97661734 88 130 C87.34 133.3 86.68 136.6 86 140 C69.17 140 52.34 140 35 140 C35.33 136.7 35.66 133.4 36 130 C36.74765625 129.92523437 37.4953125 129.85046875 38.265625 129.7734375 C44.69762797 129.02526654 44.69762797 129.02526654 49.625 125.125 C51.38328975 121.12888693 52.11778977 117.85845119 52.20532227 113.50683594 C52.22526749 112.62622498 52.24521271 111.74561401 52.26576233 110.83831787 C52.28247482 109.89651672 52.29918732 108.95471558 52.31640625 107.984375 C52.3475779 106.52792572 52.3475779 106.52792572 52.37937927 105.04205322 C52.44468862 101.94477315 52.50367323 98.84740932 52.5625 95.75 C52.60570292 93.64842889 52.64931778 91.5468662 52.69335938 89.4453125 C52.80035098 84.29696052 52.9016709 79.14852442 53 74 C47.59625373 74.12004036 42.19262718 74.24436032 36.7890625 74.37231445 C34.95835917 74.41510137 33.12763011 74.45680371 31.296875 74.49731445 C22.35284156 74.6959073 13.42611133 74.91594612 4.5 75.53515625 C-2.34451423 76.00545362 -9.14165063 76.10569374 -16 76 C-16.0507527 82.60193597 -16.08575576 89.20382153 -16.10986328 95.8059082 C-16.11991444 98.05137004 -16.13355744 100.29681881 -16.15087891 102.54223633 C-16.17516581 105.77167997 -16.18649207 109.00095038 -16.1953125 112.23046875 C-16.20563507 113.23272995 -16.21595764 114.23499115 -16.22659302 115.2676239 C-16.22674408 116.20822159 -16.22689514 117.14881927 -16.22705078 118.11791992 C-16.23371262 119.35369026 -16.23371262 119.35369026 -16.24050903 120.61442566 C-15.96031713 123.3936087 -15.23111348 125.49814971 -14 128 C-11.0384304 129.4807848 -8.16493705 129.35314037 -4.875 129.5625 C-3.59367188 129.64628906 -2.31234375 129.73007813 -0.9921875 129.81640625 C-0.00476563 129.87699219 0.98265625 129.93757813 2 130 C2.125 136.625 2.125 136.625 1 140 C0.09459473 140.02505615 -0.81081055 140.0501123 -1.74365234 140.07592773 C-25.88486187 140.73233296 -25.88486187 140.73233296 -50 142 C-50 139.03 -50 136.06 -50 133 C-49.16855469 132.67386719 -48.33710937 132.34773438 -47.48046875 132.01171875 C-46.39378906 131.57472656 -45.30710937 131.13773438 -44.1875 130.6875 C-42.56908203 130.04361328 -42.56908203 130.04361328 -40.91796875 129.38671875 C-37.10151008 127.5730068 -35.60224678 126.40842357 -33.94076538 122.52285767 C-32.714038 117.92916612 -32.70488472 113.66146098 -32.70947266 108.92724609 C-32.70275543 107.92817734 -32.69603821 106.92910858 -32.68911743 105.89976501 C-32.67016657 102.60760488 -32.66621537 99.31564873 -32.6640625 96.0234375 C-32.65763503 93.73230913 -32.65090671 91.44118158 -32.64389038 89.15005493 C-32.63192669 84.35359797 -32.62820888 79.55721301 -32.62939453 74.76074219 C-32.62959823 68.6090552 -32.60223882 62.45782753 -32.56785011 56.30624962 C-32.54564239 51.57768624 -32.54155503 46.84923474 -32.54261398 42.12062454 C-32.54025098 39.85196975 -32.53138837 37.5833122 -32.51594925 35.31470871 C-32.49640378 32.14746304 -32.50208146 28.98122596 -32.51416016 25.81396484 C-32.49730164 24.4049868 -32.49730164 24.4049868 -32.48010254 22.96754456 C-32.49217458 17.84853944 -32.49217458 17.84853944 -34.8555603 13.42471313 C-37.57042473 11.6210238 -39.51030827 11.40427103 -42.75 11.25 C-44.22726562 11.16492187 -44.22726562 11.16492187 -45.734375 11.078125 C-46.48203125 11.05234375 -47.2296875 11.0265625 -48 11 C-47.125 3.125 -47.125 3.125 -46 2 C-43.47851578 1.85215929 -40.98096849 1.76495229 -38.45703125 1.71875 C-37.69581467 1.70034058 -36.93459808 1.68193115 -36.15031433 1.66296387 C-33.70445715 1.60404224 -31.25852684 1.55136392 -28.8125 1.5 C-26.38433349 1.44845475 -23.95625663 1.39540473 -21.52824402 1.33703613 C-20.01573201 1.30068565 -18.50312101 1.26818618 -16.99043274 1.2401123 C-11.2468953 1.10236267 -5.73894453 0 0 0 Z " fill="#EBE5A8" transform="translate(921,1016)"/>
<path d="M0 0 C29.7 0 59.4 0 90 0 C93 15 93 15 94.17578125 21.08984375 C102.46136018 65.3692058 102.46136018 65.3692058 123 105 C123 105.66 123 106.32 123 107 C86.25215655 102.95360825 51.49444364 75.84792977 28.85302734 48.08398438 C0 11.6402472 0 11.6402472 0 0 Z " fill="#ECE6A8" transform="translate(694,624)"/>
<path d="M0 0 C44.78355002 8.08947111 79.77950169 37.05374756 105.5625 73.3125 C124 100.37185252 124 100.37185252 124 107 C94.3 107 64.6 107 34 107 C32.659375 100.07 31.31875 93.14 29.9375 86 C26.72120603 69.72909638 23.34741249 53.72690278 18 38 C17.75717285 37.26233398 17.5143457 36.52466797 17.26416016 35.76464844 C13.05672936 23.0991586 6.9549549 11.37079928 0 0 Z " fill="#ECE6A9" transform="translate(865,262)"/>
<path d="M0 0 C-1.45375129 3.99414496 -3.40096969 7.38484316 -5.625 11 C-22.28053285 39.40878337 -28.07051881 74.95837224 -33 107 C-63.03 107 -93.06 107 -124 107 C-114.69205635 88.38411271 -114.69205635 88.38411271 -111.0625 82.75 C-110.43492798 81.76326294 -110.43492798 81.76326294 -109.79467773 80.7565918 C-87.9099578 46.77192865 -44.57934557 0 0 0 Z " fill="#ECE6A9" transform="translate(817,262)"/>
<path d="M0 0 C2.97 0 5.94 0 9 0 C9 29.37 9 58.74 9 89 C88.2 89 167.4 89 249 89 C249 107.81 249 126.62 249 146 C246.03 146 243.06 146 240 146 C240 130.16 240 114.32 240 98 C163.77 98 87.54 98 9 98 C9 113.84 9 129.68 9 146 C6.03 146 3.06 146 0 146 C0 130.16 0 114.32 0 98 C-72.27 98 -144.54 98 -219 98 C-219 113.84 -219 129.68 -219 146 C-221.97 146 -224.94 146 -228 146 C-228 127.19 -228 108.38 -228 89 C-152.76 89 -77.52 89 0 89 C0 59.63 0 30.26 0 0 Z " fill="#EBE5A8" transform="translate(992,704)"/>
<path d="M0 0 C1.03447266 -0.00128906 2.06894531 -0.00257813 3.13476562 -0.00390625 C4.22595703 -0.00003906 5.31714844 0.00382813 6.44140625 0.0078125 C8.02598633 0.00201172 8.02598633 0.00201172 9.64257812 -0.00390625 C10.68865234 -0.00261719 11.73472656 -0.00132812 12.8125 0 C13.75923584 0.00112793 14.70597168 0.00225586 15.68139648 0.00341797 C18.41901291 0.11003394 21.07626516 0.33231859 23.79736328 0.62353516 C28.70437958 1.13771966 33.56905693 1.33116315 38.5 1.4140625 C39.37302261 1.43247192 40.24604523 1.45088135 41.14552307 1.46984863 C43.91075719 1.5278893 46.67605103 1.58088778 49.44140625 1.6328125 C55.73850443 1.7531428 62.03444695 1.89066743 68.33026123 2.06640625 C70.13721549 2.1112862 71.9444411 2.14618276 73.75177002 2.171875 C76.3902251 2.20963887 79.02640615 2.27765291 81.6640625 2.3515625 C82.4618663 2.3553894 83.2596701 2.35921631 84.08164978 2.36315918 C86.31274414 2.44335938 86.31274414 2.44335938 90.00390625 3.1328125 C92.05126953 5.53759766 92.05126953 5.53759766 93.00390625 8.1328125 C92.07661703 13.24590261 87.87908884 17.3140715 84.69140625 21.2578125 C79.01082186 28.41198737 73.70388697 35.73415781 68.61987305 43.32275391 C65.96770213 47.27896343 63.25827581 51.16641907 60.42578125 54.99609375 C54.37686336 63.26352388 48.79029892 71.84794422 43.12890625 80.3828125 C41.99761492 82.08478106 40.86610571 83.78660482 39.734375 85.48828125 C37.52062643 88.81714546 35.30904911 92.14743807 33.09863281 95.47851562 C31.17638932 98.37335894 29.24735651 101.26333705 27.30761719 104.14648438 C21.34187471 113.02232065 15.62343141 122.03396432 10.00390625 131.1328125 C16.39097221 130.92162348 22.77703529 130.68944343 29.1628418 130.44311523 C31.33226505 130.36185677 33.50186947 130.285287 35.67163086 130.21362305 C38.80252287 130.1093798 41.93236119 129.9879153 45.0625 129.86328125 C46.02224228 129.83501755 46.98198456 129.80675385 47.97080994 129.77763367 C55.61093899 129.44708995 63.73329041 128.29430235 69.59765625 122.90234375 C74.77125469 116.39223238 77.72197087 108.05158162 80.00390625 100.1328125 C80.20886719 99.43671875 80.41382813 98.740625 80.625 98.0234375 C81.0967553 96.39669509 81.5523718 94.76528319 82.00390625 93.1328125 C85.30390625 93.1328125 88.60390625 93.1328125 92.00390625 93.1328125 C91.83000366 94.4926123 91.83000366 94.4926123 91.65258789 95.87988281 C91.21627274 99.30150067 90.78231339 102.72340136 90.34985352 106.14550781 C90.16359581 107.61567633 89.97644829 109.08573245 89.78833008 110.55566406 C89.51529258 112.69045327 89.24530729 114.82560392 88.9765625 116.9609375 C88.84334091 118.00743469 88.84334091 118.00743469 88.70742798 119.07507324 C88.05867612 124.30902966 87.66693059 129.53283647 87.44311523 134.80371094 C86.91282714 137.61580009 86.21199738 138.3656045 84.00390625 140.1328125 C80.91532279 140.41366841 78.03069505 140.5113443 74.94262695 140.47338867 C73.55208603 140.47404579 73.55208603 140.47404579 72.13345337 140.47471619 C69.06531813 140.47262398 65.99772743 140.4492724 62.9296875 140.42578125 C60.80405475 140.42018684 58.67841814 140.41591601 56.55278015 140.41291809 C50.95491885 140.40145718 45.35729062 140.37197915 39.75952148 140.33880615 C34.04869744 140.30813219 28.33783578 140.29441847 22.62695312 140.27929688 C11.41916836 140.24711076 0.21155668 140.19589925 -10.99609375 140.1328125 C-13.01428223 135.3762207 -13.01428223 135.3762207 -12.85058594 133.18554688 C-11.65467244 130.31262096 -10.04559104 127.882779 -8.32421875 125.2890625 C-7.93840134 124.70412018 -7.55258392 124.11917786 -7.15507507 123.51651001 C-5.85736067 121.55172826 -4.55168858 119.59236482 -3.24609375 117.6328125 C-2.32048055 116.23458568 -1.39544667 114.83597522 -0.47094727 113.43701172 C1.5628275 110.36089778 3.59964436 107.28682558 5.63818359 104.21386719 C9.24713168 98.77011609 12.83922527 93.31533016 16.4296875 87.859375 C17.70799613 85.91731002 18.98631645 83.97525273 20.26464844 82.03320312 C20.89608765 81.07389893 21.52752686 80.11459473 22.17810059 79.1262207 C30.04158519 67.18128818 37.91820285 55.2459236 45.85971069 43.35269165 C50.00769587 37.13688896 54.11306682 30.89459237 58.19140625 24.6328125 C59.17077148 23.13427734 59.17077148 23.13427734 60.16992188 21.60546875 C60.78931641 20.65542969 61.40871094 19.70539063 62.046875 18.7265625 C62.5936792 17.88802734 63.1404834 17.04949219 63.70385742 16.18554688 C65.02220127 14.18017655 65.02220127 14.18017655 66.00390625 12.1328125 C59.75900304 12.32090509 53.51555839 12.53330279 47.2722168 12.76757812 C45.15134916 12.84381371 43.03023806 12.91357787 40.90893555 12.9765625 C37.84726358 13.06862123 34.78724288 13.18446775 31.7265625 13.3046875 C30.788694 13.32778992 29.8508255 13.35089233 28.88453674 13.37469482 C21.28735582 13.71005267 15.23110433 15.62276955 9.19140625 20.3203125 C3.8149699 27.23287352 2.29975228 34.6018261 1.00390625 43.1328125 C-2.29609375 43.1328125 -5.59609375 43.1328125 -8.99609375 43.1328125 C-9.12139424 36.74248741 -9.12139424 36.74248741 -8.5234375 33.83300781 C-7.88969387 30.58800571 -7.69071003 27.41784486 -7.49609375 24.1171875 C-7.41281136 22.77083018 -7.32947652 21.42447611 -7.24609375 20.078125 C-7.11965448 17.96915744 -6.9947625 15.86010839 -6.87109375 13.75097656 C-6.74997332 11.70612313 -6.62330206 9.66166982 -6.49609375 7.6171875 C-6.42390625 6.39741211 -6.35171875 5.17763672 -6.27734375 3.92089844 C-5.80984879 -0.71346996 -4.24860062 0.00511659 0 0 Z " fill="#E9E3A7" transform="translate(1119.99609375,1015.8671875)"/>
<path d="M0 0 C11.52899567 0.02828934 23.01481513 0.50529044 34.52880859 1.06811523 C45.8772298 1.61416381 57.21964517 2.15244552 68.57958984 2.38061523 C69.37764038 2.3978212 70.17569092 2.41502716 70.9979248 2.43275452 C74.72296025 2.51155781 78.44717966 2.57474106 82.17285156 2.61279297 C83.46980957 2.63801025 84.76676758 2.66322754 86.10302734 2.68920898 C87.79431763 2.70939087 87.79431763 2.70939087 89.51977539 2.72998047 C90.38900635 2.86218994 91.2582373 2.99439941 92.15380859 3.13061523 C94.32870419 6.39295863 94.57813898 7.35195135 94.15380859 11.13061523 C93.07495117 13.15673828 93.07495117 13.15673828 91.54833984 15.14233398 C90.9838916 15.8903125 90.41944336 16.63829102 89.83789062 17.40893555 C89.22026855 18.20396484 88.60264648 18.99899414 87.96630859 19.81811523 C86.6673219 21.53495088 85.36916278 23.25241297 84.07177734 24.97045898 C83.08250244 26.26959229 83.08250244 26.26959229 82.07324219 27.5949707 C79.25467903 31.31839947 76.50932054 35.09234127 73.77880859 38.88061523 C72.99884521 39.96113159 72.99884521 39.96113159 72.203125 41.06347656 C67.69157571 47.33724327 63.25804467 53.66484815 58.84130859 60.00561523 C58.19564941 60.93212891 57.54999023 61.85864258 56.88476562 62.81323242 C52.97579647 68.44495085 49.14022378 74.12095086 45.34790039 79.83178711 C43.32561461 82.87230401 41.29365603 85.90601163 39.25752258 88.93725586 C37.38427893 91.72684886 35.51470246 94.51889137 33.64526367 97.31103516 C32.69566553 98.72788815 31.74482644 100.14391026 30.79272461 101.55908203 C24.2763304 111.24785752 18.05974449 121.05739403 12.15380859 131.13061523 C18.54087455 130.91942621 24.92693763 130.68724617 31.31274414 130.44091797 C33.48216739 130.35965951 35.65177182 130.28308973 37.8215332 130.21142578 C40.95242522 130.10718253 44.08226353 129.98571803 47.21240234 129.86108398 C48.17214462 129.83282028 49.1318869 129.80455658 50.12071228 129.7754364 C58.22606639 129.42476512 66.27898499 128.16862838 72.15380859 122.13061523 C78.74285304 113.89430968 81.36512414 103.12658463 84.15380859 93.13061523 C87.12380859 93.13061523 90.09380859 93.13061523 93.15380859 93.13061523 C93.52062439 100.58920305 92.54988699 107.47033736 91.29125977 114.79003906 C90.20396977 121.28370099 89.73163623 127.64722259 89.56005859 134.22436523 C89.10305596 137.49369178 88.68927275 138.15692087 86.15380859 140.13061523 C83.06522513 140.41147114 80.18059739 140.50914704 77.0925293 140.47119141 C75.70198837 140.47184853 75.70198837 140.47184853 74.28335571 140.47251892 C71.21522048 140.47042672 68.14762977 140.44707514 65.07958984 140.42358398 C62.9539571 140.41798957 60.82832049 140.41371874 58.7026825 140.41072083 C53.10482119 140.39925992 47.50719297 140.36978189 41.90942383 140.33660889 C36.19859978 140.30593492 30.48773812 140.2922212 24.77685547 140.27709961 C13.56907071 140.24491349 2.36145902 140.19370199 -8.84619141 140.13061523 C-10.87121582 135.38427734 -10.87121582 135.38427734 -10.64599609 133.10131836 C-9.6805186 130.72240067 -8.46895958 128.74152883 -7.04931641 126.59936523 C-6.12735474 125.19847656 -6.12735474 125.19847656 -5.18676758 123.76928711 C-4.49687744 122.73352539 -3.8069873 121.69776367 -3.09619141 120.63061523 C-2.36038226 119.51703888 -1.62513214 118.40309299 -0.89038086 117.28881836 C0.79709711 114.73156918 2.48798602 112.17661266 4.18066406 109.62280273 C7.56908766 104.50741886 10.94137927 99.38144937 14.31396484 94.25561523 C34.17413351 64.08021831 34.17413351 64.08021831 43.88601685 49.53588867 C48.33037729 42.87593065 52.73568355 36.19084868 57.12182617 29.49243164 C58.37919732 27.5727695 59.63854833 25.65441497 60.89794922 23.73608398 C61.70600865 22.50308755 62.51395614 21.27001776 63.32177734 20.03686523 C64.03615967 18.94696289 64.75054199 17.85706055 65.48657227 16.73413086 C67.12435237 14.27764125 67.12435237 14.27764125 68.15380859 12.13061523 C61.90890538 12.31870782 55.66546074 12.53110553 49.42211914 12.76538086 C47.3012515 12.84161645 45.1801404 12.91138061 43.05883789 12.97436523 C39.99716593 13.06642396 36.93714522 13.18227049 33.87646484 13.30249023 C32.93859634 13.32559265 32.00072784 13.34869507 31.03443909 13.37249756 C23.43725816 13.7078554 17.38100667 15.62057228 11.34130859 20.31811523 C5.96487224 27.23067626 4.44965463 34.59962884 3.15380859 43.13061523 C-0.14619141 43.13061523 -3.44619141 43.13061523 -6.84619141 43.13061523 C-6.79084229 42.39125732 -6.73549316 41.65189941 -6.6784668 40.89013672 C-6.42125611 37.44950884 -6.1649712 34.00881257 -5.90869141 30.56811523 C-5.816604 29.33786621 -5.7245166 28.10761719 -5.62963867 26.84008789 C-5.23780588 21.57238362 -4.84622283 16.30555852 -4.52587891 11.03295898 C-4.48325928 10.33436768 -4.44063965 9.63577637 -4.39672852 8.91601562 C-4.2911114 7.13101791 -4.19147219 5.34566929 -4.09228516 3.56030273 C-3.7377 0.05947782 -3.57115475 0.1638847 0 0 Z " fill="#EAE4A7" transform="translate(1240.84619140625,1015.869384765625)"/>
<path d="M0 0 C1.63984529 0.00031732 3.27971127 0.01165397 4.91943359 0.03173828 C6.21365738 0.03598312 6.21365738 0.03598312 7.5340271 0.04031372 C10.29544829 0.05152746 13.05654759 0.07663394 15.81787109 0.10205078 C17.68765808 0.11207905 19.55745015 0.12120517 21.42724609 0.12939453 C26.01591218 0.15147066 30.60433702 0.18600844 35.19287109 0.22705078 C34.52877763 4.49617023 33.56327342 8.19364669 32.00537109 12.22705078 C24.74570786 32.13867047 20.02325897 53.01930831 17.50537109 74.03955078 C17.38589111 75.02149414 17.26641113 76.0034375 17.14331055 77.01513672 C15.95237609 87.76717927 15.68721233 98.35154355 15.19287109 109.22705078 C-0.97712891 109.22705078 -17.14712891 109.22705078 -33.80712891 109.22705078 C-33.80712891 89.56332075 -25.39886018 1.51474541 0 0 Z " fill="#EBE5A8" transform="translate(638.80712890625,380.77294921875)"/>
<path d="M0 0 C16.17 0 32.34 0 49 0 C49.33 7.26 49.66 14.52 50 22 C52.27540544 52.2278861 59.86684424 80.5934378 70 109 C64.41357741 109.24786175 58.83037158 109.42893257 53.23974609 109.54931641 C51.34009045 109.59950332 49.44081922 109.66767504 47.54248047 109.75439453 C31.8490417 110.45315948 31.8490417 110.45315948 27.54150391 107.06787109 C25.9134215 104.42178594 24.94192975 101.9557106 24 99 C23.25627621 97.41777985 22.49877819 95.84194909 21.7265625 94.2734375 C21.01512463 92.64535204 20.31496246 91.01230202 19.625 89.375 C19.05700684 88.03091064 19.05700684 88.03091064 18.47753906 86.65966797 C6.89947719 58.70746948 0 30.32733929 0 0 Z " fill="#ECE6A8" transform="translate(605,503)"/>
<path d="M0 0 C-0.33 3.3 -0.66 6.6 -1 10 C-2.381875 10.2475 -3.76375 10.495 -5.1875 10.75 C-9.33942933 11.67192447 -11.97892409 12.88451547 -15 16 C-16.16988673 19.50966018 -16.34026768 22.8234392 -16.53515625 26.484375 C-16.57826935 27.26411682 -16.62138245 28.04385864 -16.665802 28.847229 C-16.80604416 31.48114502 -16.93583414 34.11539714 -17.0625 36.75 C-17.10702301 37.66007812 -17.15154602 38.57015625 -17.19741821 39.5078125 C-18.05247625 57.62015199 -18.19360574 75.72693388 -18.18803024 93.85536194 C-18.18749934 96.00265695 -18.18867664 98.14994662 -18.18997192 100.29724121 C-18.19111398 104.34404194 -18.18093491 108.39071916 -18.16796875 112.4375 C-18.16677032 113.66374084 -18.1655719 114.88998169 -18.16433716 116.15338135 C-18.15804291 117.27710144 -18.15174866 118.40082153 -18.14526367 119.55859375 C-18.14145187 120.54142334 -18.13764008 121.52425293 -18.13371277 122.53686523 C-18.10144078 125.13624218 -18.10144078 125.13624218 -17 128 C-13.828262 129.585869 -10.36486178 129.37866445 -6.875 129.5625 C-6.12089844 129.60568359 -5.36679688 129.64886719 -4.58984375 129.69335938 C-2.72678112 129.7994832 -0.86341476 129.90025001 1 130 C1.125 136.625 1.125 136.625 0 140 C-1.21582764 140.02505615 -2.43165527 140.0501123 -3.68432617 140.07592773 C-8.20379817 140.17024189 -12.72312508 140.27040369 -17.24243164 140.37231445 C-19.19682415 140.41557258 -21.15125222 140.45725398 -23.10571289 140.49731445 C-25.91824045 140.55523836 -28.73059048 140.61886873 -31.54296875 140.68359375 C-32.84949654 140.70866249 -32.84949654 140.70866249 -34.18241882 140.73423767 C-38.25495477 140.83323863 -42.01237337 141.10091375 -46 142 C-48.33301986 142.03824623 -50.66711508 142.04574284 -53 142 C-53 139.03 -53 136.06 -53 133 C-52.18015625 132.69707031 -51.3603125 132.39414063 -50.515625 132.08203125 C-48.89914062 131.45361328 -48.89914062 131.45361328 -47.25 130.8125 C-46.18265625 130.40644531 -45.1153125 130.00039062 -44.015625 129.58203125 C-40.22009383 127.59085233 -37.72133346 125.284494 -36.404706 121.11467838 C-35.97926549 118.8916576 -35.86556352 116.85370671 -35.85282898 114.59092712 C-35.84567368 113.71469193 -35.83851837 112.83845673 -35.83114624 111.93566895 C-35.82845734 110.98228638 -35.82576843 110.02890381 -35.82299805 109.04663086 C-35.81642685 108.03649429 -35.80985565 107.02635773 -35.80308533 105.98561096 C-35.78338403 102.64535447 -35.77170034 99.30514275 -35.76171875 95.96484375 C-35.75764322 94.82487001 -35.7535677 93.68489628 -35.74936867 92.51037788 C-35.7285273 86.48340156 -35.7142139 80.45644791 -35.70483398 74.42944336 C-35.69373846 68.19243383 -35.65929677 61.95577802 -35.61966228 55.718894 C-35.59358597 50.93119114 -35.58515045 46.143574 -35.58155251 41.35580635 C-35.57666783 39.0556148 -35.56500085 36.75542755 -35.54651451 34.4553051 C-35.52230144 31.24457061 -35.52305485 28.03477143 -35.5300293 24.82397461 C-35.51721924 23.86856781 -35.50440918 22.91316101 -35.49121094 21.92880249 C-35.38828572 16.97801973 -35.38828572 16.97801973 -37.84089661 12.91798401 C-40.68233684 11.70989147 -43.17160321 11.47980417 -46.25 11.3125 C-47.32765625 11.24675781 -48.4053125 11.18101563 -49.515625 11.11328125 C-50.74539063 11.05720703 -50.74539063 11.05720703 -52 11 C-51.67 8.03 -51.34 5.06 -51 2 C-49.88028809 1.97494385 -48.76057617 1.9498877 -47.60693359 1.92407227 C-43.4359272 1.82959986 -39.26507193 1.7294778 -35.09423828 1.62768555 C-33.29219102 1.58448689 -31.4901068 1.54280176 -29.68798828 1.50268555 C-27.09135825 1.44461624 -24.4949117 1.3810292 -21.8984375 1.31640625 C-21.0982016 1.29969376 -20.2979657 1.28298126 -19.47348022 1.26576233 C-12.90719515 1.09351465 -6.57892147 -0.13157843 0 0 Z " fill="#EAE4A7" transform="translate(1087,1016)"/>
<path d="M0 0 C5.26533803 2.97971859 8.56153198 6.24168881 11.5 11.5 C12.428125 13.1396875 12.428125 13.1396875 13.375 14.8125 C15.66038923 22.30349804 15.40830564 29.34992264 11.82421875 36.3671875 C6.87426434 44.33968044 1.32005607 48.55998131 -7.5 51.5 C-17.11279372 52.52419416 -23.84810954 50.77417436 -31.53515625 44.9609375 C-37.15500485 39.92574406 -39.87432811 33.9682417 -40.9140625 26.54296875 C-41.31236156 18.37783808 -39.36511262 11.85294237 -33.890625 5.6875 C-32.17424064 4.11283545 -30.43200799 2.7988289 -28.5 1.5 C-27.92765625 1.0875 -27.3553125 0.675 -26.765625 0.25 C-18.60934163 -4.76925131 -8.42533517 -3.83541377 0 0 Z " fill="#070605" transform="translate(1215.5,600.5)"/>
<path d="M0 0 C8.54720727 3.56980134 13.41775269 9.01233291 17.30078125 17.2734375 C19.53632532 23.98006972 19.23450555 31.18089407 16.23828125 37.5859375 C11.51914224 45.85440077 5.9867309 50.38765683 -3.13671875 52.9609375 C-11.30101311 53.95658315 -18.25080049 53.38446957 -25.12890625 48.57421875 C-31.40695795 43.33564774 -35.87717284 37.3399282 -37.0078125 28.99609375 C-37.39874026 20.92876625 -35.28244619 14.91523319 -30.69921875 8.2734375 C-28.24621499 5.80096546 -25.73542624 3.96456042 -22.69921875 2.2734375 C-21.76722656 1.7371875 -20.83523438 1.2009375 -19.875 0.6484375 C-13.72234733 -2.01544164 -6.43095697 -1.73105354 0 0 Z " fill="#060504" transform="translate(1122.69921875,598.7265625)"/>
<path d="M0 0 C5.5893565 4.14211241 9.49908472 9.21147022 12.1875 15.62109375 C13.32659498 25.24756311 12.49946723 33.52034825 6.625 41.30859375 C1.31774488 47.13590653 -6.94086755 50.68017764 -14.75 51.05859375 C-22.43032546 50.97710489 -28.96238565 47.87246985 -34.796875 42.9453125 C-41.30533184 35.93744436 -42.45904108 28.39869583 -42.21875 19.02734375 C-41.27323415 11.09955698 -36.93269537 5.93485154 -30.828125 1.0625 C-21.71876106 -5.45175445 -9.70453994 -5.63437928 0 0 Z " fill="#050504" transform="translate(1033.8125,601.37890625)"/>
<path d="M0 0 C0.99 0.495 0.99 0.495 2 1 C1.46632813 1.40089844 0.93265625 1.80179687 0.3828125 2.21484375 C-5.69778247 6.85419043 -11.42710458 11.76272713 -17 17 C-17.52754883 17.4935498 -18.05509766 17.98709961 -18.59863281 18.49560547 C-39.03613627 37.77014296 -53.30331183 60.87619078 -65.84594727 85.81787109 C-67 88 -67 88 -69 91 C-71.90834885 91.26660183 -74.60138268 91.34779124 -77.5078125 91.29296875 C-78.34843231 91.28872391 -79.18905212 91.28447906 -80.05514526 91.28010559 C-82.74541993 91.26328532 -85.43495099 91.22562781 -88.125 91.1875 C-89.94660378 91.17245745 -91.76821928 91.1587683 -93.58984375 91.14648438 C-98.06018324 91.11337094 -102.52996546 91.06156637 -107 91 C-102.88790057 84.32187064 -98.64580884 77.96400719 -93.625 71.9375 C-93.06047119 71.25268555 -92.49594238 70.56787109 -91.91430664 69.86230469 C-80.72707077 56.36436715 -68.87233018 43.76145562 -55 33 C-54.18233154 32.34378662 -54.18233154 32.34378662 -53.34814453 31.67431641 C-37.60865374 19.04321041 -19.10852176 6.83257232 0 0 Z " fill="#EAE4A7" transform="translate(749,278)"/>
<path d="M0 0 C12.21 0 24.42 0 37 0 C38.4025 2.7225 39.805 5.445 41.25 8.25 C52.74054023 30.16894574 65.74327791 50.17883317 83 68 C83.51030762 68.53608887 84.02061523 69.07217773 84.54638672 69.62451172 C91.84048644 77.27344754 99.32024799 83.94763238 108 90 C107.01 90.495 107.01 90.495 106 91 C103.13225377 89.86088453 100.3997661 88.65059915 97.625 87.3125 C96.35873779 86.70390137 96.35873779 86.70390137 95.06689453 86.08300781 C78.81744921 78.10977066 64.01037661 68.43238302 50 57 C49.38431152 56.50000488 48.76862305 56.00000977 48.13427734 55.48486328 C35.20392349 44.90548285 23.13894995 33.31180316 13 20 C12.53400391 19.38914551 12.06800781 18.77829102 11.58789062 18.14892578 C10.06920133 16.14840136 8.56319815 14.13904986 7.0625 12.125 C6.58917236 11.49408447 6.11584473 10.86316895 5.62817383 10.21313477 C5.18497803 9.60912842 4.74178223 9.00512207 4.28515625 8.3828125 C3.89207275 7.85059082 3.49898926 7.31836914 3.09399414 6.77001953 C2 5 2 5 0 0 Z " fill="#EAE4A7" transform="translate(643,624)"/>
<path d="M0 0 C19.57578809 5.82838998 38.10743326 18.44153817 54 31 C54.91136719 31.71800781 55.82273437 32.43601562 56.76171875 33.17578125 C63.78971971 38.82023851 70.43903978 44.82608923 77 51 C77.65871094 51.61617188 78.31742188 52.23234375 78.99609375 52.8671875 C84.14484143 57.8375721 88.53658181 63.41880005 93 69 C93.69480469 69.85078125 94.38960937 70.7015625 95.10546875 71.578125 C108 87.44064313 108 87.44064313 108 91 C95.79 91 83.58 91 71 91 C69.576875 88.23625 68.15375 85.4725 66.6875 82.625 C55.47172107 61.22163225 42.45738762 40.81159891 25.46777344 23.49853516 C23.96571856 21.96500009 22.48645804 20.41155799 21.0078125 18.85546875 C15.15442289 12.77249725 9.08370568 7.54032904 2.203125 2.64453125 C1.11257813 1.83048828 1.11257813 1.83048828 0 1 C0 0.67 0 0.34 0 0 Z " fill="#EAE4A7" transform="translate(932,278)"/>
<path d="M0 0 C10.56 0 21.12 0 32 0 C31.95875 2.68125 31.9175 5.3625 31.875 8.125 C31.83262378 20.7954903 33.66859387 32.0274773 37.9765625 43.91796875 C39 47 39 47 39 50 C37.99582031 50.21914063 36.99164062 50.43828125 35.95703125 50.6640625 C23.51559715 53.49986516 12.72847335 58.00310212 1.92578125 64.8984375 C0 66 0 66 -2 66 C-2.02956676 62.87502063 -2.04698543 59.75007823 -2.0625 56.625 C-2.07087891 55.75488281 -2.07925781 54.88476562 -2.08789062 53.98828125 C-2.10345385 49.78621004 -2.01453721 45.67585422 -1.53125 41.5 C-0.64229364 33.49387132 -0.63080916 25.42139503 -0.4375 17.375 C-0.39421794 15.68618923 -0.35060089 13.997387 -0.30664062 12.30859375 C-0.19994434 8.20581946 -0.10012417 4.10296077 0 0 Z " fill="#ECE6A8" transform="translate(908,503)"/>
<path d="M0 0 C2.04119788 1.61594832 4.04072937 3.2856382 6 5 C6 5.66 6 6.32 6 7 C6.59039063 7.26554688 7.18078125 7.53109375 7.7890625 7.8046875 C10.05716052 9.03090304 11.53352098 10.33351588 13.375 12.125 C22.4639108 20.21902075 33.61325851 25.06571058 45 29 C42.06325283 33.02020729 38.80082687 35.91943911 34.75 38.75 C33.83734375 39.39243652 33.83734375 39.39243652 32.90625 40.04785156 C18.47747196 50.01162664 3.05478053 57.28522329 -13.6875 62.4375 C-14.56180664 62.70908936 -15.43611328 62.98067871 -16.33691406 63.26049805 C-17.15772461 63.50324463 -17.97853516 63.74599121 -18.82421875 63.99609375 C-19.55729248 64.21450928 -20.29036621 64.4329248 -21.0456543 64.65795898 C-23 65 -23 65 -26 64 C-25.6596875 63.54753906 -25.319375 63.09507812 -24.96875 62.62890625 C-12.02712028 44.42113465 -5.16249755 21.49908519 0 0 Z " fill="#EAE4A7" transform="translate(891,666)"/>
<path d="M0 0 C13.2 0 26.4 0 40 0 C41.629375 3.0525 43.25875 6.105 44.9375 9.25 C45.45046631 10.20551758 45.96343262 11.16103516 46.49194336 12.14550781 C46.89550049 12.90702148 47.29905762 13.66853516 47.71484375 14.453125 C48.12855225 15.22817383 48.54226074 16.00322266 48.96850586 16.80175781 C49.9392844 18.8706075 50.53558429 20.7690269 51 23 C50.38705078 23.06469482 49.77410156 23.12938965 49.14257812 23.19604492 C37.32750809 24.48293316 26.1234869 26.05675173 14.88671875 30.01171875 C12 31 12 31 10 31 C6.7 20.77 3.4 10.54 0 0 Z " fill="#EAE4A7" transform="translate(1008,381)"/>
<path d="M0 0 C4.09680464 2.82874606 6.66653904 6.27053735 8.625 10.8125 C9.89521344 18.43378063 7.8572669 24.48149253 3.625 30.8125 C-0.64823749 35.08573749 -4.82354564 36.88654752 -10.8125 37.1875 C-15.35991047 37.07419243 -17.88106256 35.81891128 -21.375 32.8125 C-26.49959326 26.99539414 -26.84431469 23.12741504 -26.78125 15.44140625 C-26.08763798 9.2455835 -23.33485944 5.45548884 -18.76953125 1.37890625 C-13.08332311 -2.52445278 -6.29660711 -2.21547287 0 0 Z " fill="#050503" transform="translate(1094.375,1200.1875)"/>
<path d="M0 0 C4.39104808 3.03191415 7.21705512 6.65003542 8.625 11.8125 C9.55339752 18.03895272 8.40271172 23.00737793 5.3671875 28.50390625 C1.78402538 33.25199776 -2.99386359 36.11893356 -8.8125 37.3125 C-14.08671138 37.59759251 -17.31108797 36.30935453 -21.375 32.8125 C-26.47744152 27.15844318 -26.79348887 22.53464907 -26.7109375 15.11328125 C-26.12401601 9.34643643 -23.8346764 6.0376618 -19.61328125 2.21875 C-13.45470662 -2.27838361 -7.0750583 -2.48937236 0 0 Z " fill="#040403" transform="translate(934.375,1200.1875)"/>
<path d="M0 0 C5.75593447 2.66238917 9.16952201 6.46224051 11.7109375 12.27734375 C12.74837712 18.69499352 11.41313491 23.97647018 7.7109375 29.27734375 C3.35882253 33.51786603 -0.69436032 35.35744735 -6.7265625 35.58984375 C-11.76534267 35.43968143 -15.22381764 34.2831571 -18.91796875 30.6953125 C-22.83157498 26.3667697 -24.99794348 22.84889509 -25.6640625 16.96484375 C-25.07201483 11.14304166 -23.03474474 6.93574187 -18.7890625 2.90234375 C-12.72882592 -1.03681003 -7.08966339 -2.23820431 0 0 Z " fill="#E9E3A6" transform="translate(1120.2890625,607.72265625)"/>
<path d="M0 0 C4.9961892 2.83184813 7.89529949 7.06089848 9.6875 12.4375 C10.27473602 18.42730742 9.03391739 22.55132 5.6875 27.4375 C2.37977273 30.93979946 -1.55376239 33.99153866 -6.390625 34.7734375 C-12.16912988 34.87736744 -16.62187067 33.94269795 -21.3125 30.4375 C-26.02152226 25.40130001 -27.75084494 20.53791271 -27.66015625 13.59375 C-26.81824228 8.37199142 -23.45686074 4.50012069 -19.6875 1 C-13.87001141 -2.82729512 -6.29088733 -2.79860767 0 0 Z " fill="#E9E3A7" transform="translate(1211.3125,608.5625)"/>
<path d="M0 0 C5.2354914 2.47495957 9.39229231 6.78458462 12 12 C12.72895386 17.99772167 13.04339377 23.41722421 9.4375 28.5 C4.95439527 33.51606124 0.86591569 36.15617043 -5.9375 36.5625 C-12.22629556 36.2757768 -16.0713365 33.67926393 -20.60546875 29.53125 C-24.49858533 25.0819739 -24.6835779 20.56194522 -24.41796875 14.8046875 C-23.43843193 8.23172079 -18.99639955 4.80160835 -14 1 C-9.81411228 -1.09294386 -4.5584359 -0.42417949 0 0 Z " fill="#EAE4A7" transform="translate(1025,607)"/>
<path d="M0 0 C54.78 0 109.56 0 166 0 C166 1.32 166 2.64 166 4 C111.22 4 56.44 4 0 4 C0 2.68 0 1.36 0 0 Z " fill="#DFDA9F" transform="translate(1141,951)"/>
<path d="M0 0 C54.78 0 109.56 0 166 0 C166 1.32 166 2.64 166 4 C111.22 4 56.44 4 0 4 C0 2.68 0 1.36 0 0 Z " fill="#DFDA9F" transform="translate(917,951)"/>
<path d="M0 0 C54.78 0 109.56 0 166 0 C166 1.32 166 2.64 166 4 C111.22 4 56.44 4 0 4 C0 2.68 0 1.36 0 0 Z " fill="#DFD99F" transform="translate(690,951)"/>
<path d="M0 0 C3.56132566 -0.78306812 6.45682116 -0.94530709 10 0 C13.59595961 3.45276445 15.97005658 7.54322048 18.5 11.8125 C19.20505069 12.94540889 19.91335939 14.07629707 20.625 15.20507812 C21.92034706 17.27887895 23.20125718 19.36181681 24.46289062 21.45629883 C25.59656461 23.33237082 26.78409732 25.17614598 28 27 C28 19.41 28 11.82 28 4 C27.01 3.67 26.02 3.34 25 3 C25 2.01 25 1.02 25 0 C28.63 0 32.26 0 36 0 C36 0.99 36 1.98 36 3 C35.01 3.66 34.02 4.32 33 5 C32.66207464 7.61677492 32.51113911 10.00936392 32.48828125 12.6328125 C32.47033005 13.38464813 32.45237885 14.13648376 32.43388367 14.91110229 C32.37964219 17.31567756 32.34584208 19.72005285 32.3125 22.125 C32.27933898 23.75393417 32.24485045 25.3828419 32.20898438 27.01171875 C32.12390838 31.00766846 32.05716422 35.00355746 32 39 C31.01 39 30.02 39 29 39 C27.46292411 37.09477596 26.15345091 35.25165102 24.83984375 33.19921875 C24.44930313 32.60704056 24.05876251 32.01486237 23.65638733 31.40473938 C22.40688513 29.50525679 21.1721188 27.59668206 19.9375 25.6875 C19.1018679 24.41148251 18.26529046 23.13608357 17.42773438 21.86132812 C15.88984502 19.51770271 14.35740083 17.17072623 12.83178711 14.8190918 C11.56637532 12.87164279 10.28826952 10.93240428 9 9 C9 17.25 9 25.5 9 34 C9.99 34.33 10.98 34.66 12 35 C12 35.66 12 36.32 12 37 C8.37 37 4.74 37 1 37 C1 36.34 1 35.68 1 35 C1.99 34.34 2.98 33.68 4 33 C4.4181217 29.99147392 4.4181217 29.99147392 4.29296875 26.4609375 C4.28330078 25.15898438 4.27363281 23.85703125 4.26367188 22.515625 C4.23860388 21.13541077 4.21320902 19.75520244 4.1875 18.375 C4.17245517 16.98699337 4.15876641 15.59897133 4.14648438 14.2109375 C4.1110257 10.80690491 4.06160298 7.40364378 4 4 C2.68 3.67 1.36 3.34 0 3 C0 2.01 0 1.02 0 0 Z " fill="#DED89E" transform="translate(1108,1199)"/>
<path d="M0 0 C4.39104808 3.03191415 7.21705512 6.65003542 8.625 11.8125 C9.55339752 18.03895272 8.40271172 23.00737793 5.3671875 28.50390625 C1.78402538 33.25199776 -2.99386359 36.11893356 -8.8125 37.3125 C-14.08671138 37.59759251 -17.31108797 36.30935453 -21.375 32.8125 C-26.47744152 27.15844318 -26.79348887 22.53464907 -26.7109375 15.11328125 C-26.12401601 9.34643643 -23.8346764 6.0376618 -19.61328125 2.21875 C-13.45470662 -2.27838361 -7.0750583 -2.48937236 0 0 Z M-20.375 7.8125 C-22.88061616 12.82373233 -22.24846271 20.92627539 -20.65625 26.1875 C-18.65853457 29.92516113 -16.35158992 32.39860136 -12.375 33.8125 C-7.43337876 34.10053621 -4.29643009 33.54196548 -0.375 30.4375 C3.81568241 24.93722934 3.19256314 18.4473931 2.625 11.8125 C1.38763119 7.64079943 -0.6099069 5.32810622 -4.25 2.875 C-11.72825437 0.33239351 -15.19693476 2.30634798 -20.375 7.8125 Z " fill="#DBD69D" transform="translate(934.375,1200.1875)"/>
<path d="M0 0 C4.09680464 2.82874606 6.66653904 6.27053735 8.625 10.8125 C9.89521344 18.43378063 7.8572669 24.48149253 3.625 30.8125 C-0.64823749 35.08573749 -4.82354564 36.88654752 -10.8125 37.1875 C-15.35991047 37.07419243 -17.88106256 35.81891128 -21.375 32.8125 C-26.49959326 26.99539414 -26.84431469 23.12741504 -26.78125 15.44140625 C-26.08763798 9.2455835 -23.33485944 5.45548884 -18.76953125 1.37890625 C-13.08332311 -2.52445278 -6.29660711 -2.21547287 0 0 Z M-19.375 6.8125 C-22.45223947 11.72973833 -21.95525731 17.21767338 -21.375 22.8125 C-20.12458219 27.06392056 -18.41226586 29.91540521 -15.0625 32.8125 C-11.45165784 34.15606918 -9.20892627 34.40741959 -5.375 33.8125 C-1.50142347 31.53530653 1.05420584 28.95408831 3.0625 24.9375 C4.43448548 17.31535843 3.90515199 12.28492495 -0.375 5.8125 C-3.27067687 2.48783397 -6.86932561 1.97051383 -11.12109375 1.61328125 C-15.13961086 1.9684708 -16.69855824 3.87494197 -19.375 6.8125 Z " fill="#DDD89E" transform="translate(1094.375,1200.1875)"/>
<path d="M0 0 C4.29 0 8.58 0 13 0 C13 0.99 13 1.98 13 3 C12.01 3.33 11.02 3.66 10 4 C9.9419034 7.9166043 9.90637107 11.83309763 9.875 15.75 C9.85824219 16.86117188 9.84148438 17.97234375 9.82421875 19.1171875 C9.81455078 20.72207031 9.81455078 20.72207031 9.8046875 22.359375 C9.78897705 23.83615723 9.78897705 23.83615723 9.77294922 25.34277344 C10.00799938 28.0936186 10.5020127 29.69813448 12 32 C14.3396669 33.16983345 15.83391527 33.1661241 18.4375 33.1875 C19.21996094 33.20167969 20.00242187 33.21585938 20.80859375 33.23046875 C23.29205987 33.14086064 23.29205987 33.14086064 26 31 C27.0394775 27.8815675 27.11494838 25.72524414 27.09765625 22.45703125 C27.09282227 20.84731445 27.09282227 20.84731445 27.08789062 19.20507812 C27.07951172 18.08552734 27.07113281 16.96597656 27.0625 15.8125 C27.05798828 14.68134766 27.05347656 13.55019531 27.04882812 12.38476562 C27.03703498 9.58979073 27.0205765 6.7949218 27 4 C25.68 3.67 24.36 3.34 23 3 C23 2.01 23 1.02 23 0 C26.96 0 30.92 0 35 0 C35 0.99 35 1.98 35 3 C34.01 3.33 33.02 3.66 32 4 C31.98541748 4.73114014 31.97083496 5.46228027 31.95581055 6.21557617 C31.8811709 9.54007371 31.78456199 12.86358467 31.6875 16.1875 C31.66494141 17.33798828 31.64238281 18.48847656 31.61914062 19.67382812 C31.58369141 20.78564453 31.54824219 21.89746094 31.51171875 23.04296875 C31.48553467 24.06414795 31.45935059 25.08532715 31.43237305 26.13745117 C30.73895199 30.72828226 28.81251898 33.28420947 25.375 36.3125 C21.05821199 38.47089401 17.73747957 38.71062194 13 38 C9.34758207 36.53903283 6.98605269 34.42010716 4.83129883 31.10888672 C2.92072778 26.26204011 3.60574222 20.7461512 3.75 15.625 C3.76804687 14.41199219 3.78609375 13.19898438 3.8046875 11.94921875 C3.85167784 8.9653321 3.91736628 5.98307721 4 3 C2.68 3 1.36 3 0 3 C0 2.01 0 1.02 0 0 Z " fill="#D9D49B" transform="translate(976,1199)"/>
<path d="M0 0 C1.60875 -0.00386719 1.60875 -0.00386719 3.25 -0.0078125 C6 0.125 6 0.125 8 1.125 C8 4.425 8 7.725 8 11.125 C7.01 11.125 6.02 11.125 5 11.125 C4.87625 10.155625 4.7525 9.18625 4.625 8.1875 C4.41875 7.176875 4.2125 6.16625 4 5.125 C1.77109005 4.01054502 0.46944894 3.96019714 -2 3.9375 C-2.70125 3.92332031 -3.4025 3.90914062 -4.125 3.89453125 C-6.24524938 3.95987677 -6.24524938 3.95987677 -8 6.125 C-8.51058869 8.57971355 -8.51058869 8.57971355 -8 11.125 C-6.25550936 12.89462672 -6.25550936 12.89462672 -3.875 14.1875 C-3.05644531 14.68894531 -2.23789063 15.19039062 -1.39453125 15.70703125 C-0.60433594 16.17496094 0.18585938 16.64289063 1 17.125 C6.61176471 20.73676471 6.61176471 20.73676471 9 23.125 C9.57437408 30.87905007 9.57437408 30.87905007 7 34.125 C2.05695332 37.83228501 -1.54103759 38.5574246 -7.66796875 38.4609375 C-10 38.125 -10 38.125 -14 36.125 C-14 32.495 -14 28.865 -14 25.125 C-13.01 25.125 -12.02 25.125 -11 25.125 C-10.86722656 25.69089844 -10.73445313 26.25679687 -10.59765625 26.83984375 C-10.42105469 27.57332031 -10.24445313 28.30679687 -10.0625 29.0625 C-9.88847656 29.79339844 -9.71445313 30.52429687 -9.53515625 31.27734375 C-9.16112431 33.12469898 -9.16112431 33.12469898 -8 34.125 C-2.12353969 34.58831437 -2.12353969 34.58831437 3 32.125 C4.00309237 29.30159226 4.00309237 29.30159226 3 26.125 C0.24867402 23.70716808 -2.83410092 21.94810339 -6 20.125 C-9.33530997 18.04829757 -11.7685359 16.47219614 -14 13.125 C-13.91772339 8.68206294 -13.46405773 6.67235015 -10.5625 3.25 C-6.77214112 0.10677557 -4.86977414 -0.01170619 0 0 Z " fill="#DED89E" transform="translate(1164,1198.875)"/>
<path d="M0 0 C-0.33 3.3 -0.66 6.6 -1 10 C-1.99 10 -2.98 10 -4 10 C-4.12375 9.030625 -4.2475 8.06125 -4.375 7.0625 C-4.58125 6.051875 -4.7875 5.04125 -5 4 C-8.01868434 2.49065783 -10.67297229 2.82489328 -14 3 C-14.99 3.66 -15.98 4.32 -17 5 C-16.99881737 7.86146318 -16.99881737 7.86146318 -16 11 C-13.83759331 12.70073584 -12.01355262 13.91858142 -9.625 15.1875 C-1.83065676 19.53565436 -1.83065676 19.53565436 0 22 C0.39901799 25.09238939 0.62450299 27.03939322 0 30 C-2.59721954 33.31866942 -5.12731561 35.40287104 -9 37 C-11.4375 37.265625 -11.4375 37.265625 -14 37.25 C-15.2684375 37.25773437 -15.2684375 37.25773437 -16.5625 37.265625 C-19 37 -19 37 -23 35 C-22.67 31.37 -22.34 27.74 -22 24 C-21.34 24 -20.68 24 -20 24 C-19.86722656 24.56589844 -19.73445312 25.13179687 -19.59765625 25.71484375 C-19.42105469 26.44832031 -19.24445312 27.18179687 -19.0625 27.9375 C-18.88847656 28.66839844 -18.71445312 29.39929687 -18.53515625 30.15234375 C-18.16112431 31.99969898 -18.16112431 31.99969898 -17 33 C-11.58016321 33.39259562 -11.58016321 33.39259562 -6.5 31.875 C-4.39294868 29.24118585 -4.70898778 27.27388743 -5 24 C-5.5671875 23.71898437 -6.134375 23.43796875 -6.71875 23.1484375 C-19.58868256 16.66939611 -19.58868256 16.66939611 -22 13 C-22.71961955 8.94396253 -23.05064006 6.63816905 -20.8125 3.1484375 C-14.92058747 -2.82845454 -7.61865174 -1.90466293 0 0 Z " fill="#E2DCA1" transform="translate(901,1200)"/>
<path d="M0 0 C9.57 0 19.14 0 29 0 C29.33 3.3 29.66 6.6 30 10 C29.01 10 28.02 10 27 10 C26.7525 8.824375 26.7525 8.824375 26.5 7.625 C26.005 6.75875 25.51 5.8925 25 5 C22.36 4.34 19.72 3.68 17 3 C17 13.23 17 23.46 17 34 C18.98 34 20.96 34 23 34 C23 34.99 23 35.98 23 37 C17.72 37 12.44 37 7 37 C7 36.34 7 35.68 7 35 C8.32 34.34 9.64 33.68 11 33 C11.33 23.1 11.66 13.2 12 3 C9.69 3.33 7.38 3.66 5 4 C2.98958997 6.93449408 2.98958997 6.93449408 2 10 C1.34 10 0.68 10 0 10 C0 6.7 0 3.4 0 0 Z " fill="#DCD69D" transform="translate(833,1199)"/>
<path d="M0 0 C9.57 0 19.14 0 29 0 C29.33 3.3 29.66 6.6 30 10 C29.01 10 28.02 10 27 10 C26.67 8.02 26.34 6.04 26 4 C23.03 3.67 20.06 3.34 17 3 C17 13.23 17 23.46 17 34 C18.98 34 20.96 34 23 34 C23 34.99 23 35.98 23 37 C17.72 37 12.44 37 7 37 C7 36.34 7 35.68 7 35 C9.475 34.505 9.475 34.505 12 34 C12.33 23.77 12.66 13.54 13 3 C10.36 3.33 7.72 3.66 5 4 C4.34 5.98 3.68 7.96 3 10 C2.01 10 1.02 10 0 10 C0 6.7 0 3.4 0 0 Z " fill="#E5DFA3" transform="translate(1014,1199)"/>
<path d="M0 0 C4.29 0 8.58 0 13 0 C13 0.99 13 1.98 13 3 C12.01 3.33 11.02 3.66 10 4 C8.69566381 9.93627021 8.88913682 15.83332252 8.9375 21.875 C8.94201172 22.94492188 8.94652344 24.01484375 8.95117188 25.1171875 C8.96290236 27.74481589 8.98083609 30.37241531 9 33 C12.3 33 15.6 33 19 33 C19.99 30.69 20.98 28.38 22 26 C22.99 26 23.98 26 25 26 C24.85892253 27.45880109 24.71197585 28.91703551 24.5625 30.375 C24.48128906 31.18710938 24.40007813 31.99921875 24.31640625 32.8359375 C24 35 24 35 23 37 C15.41 37 7.82 37 0 37 C0 36.34 0 35.68 0 35 C0.99 34.34 1.98 33.68 3 33 C3.51220541 29.89786275 3.51220541 29.89786275 3.51171875 26.2421875 C3.53864555 25.24761032 3.53864555 25.24761032 3.56611633 24.23294067 C3.62032924 22.11369197 3.65414771 19.99466975 3.6875 17.875 C3.72066367 16.43877048 3.75515245 15.0025709 3.79101562 13.56640625 C3.87605964 10.04448871 3.94281873 6.52249241 4 3 C2.68 3 1.36 3 0 3 C0 2.01 0 1.02 0 0 Z " fill="#DDD89E" transform="translate(949,1199)"/>
<path d="M0 0 C4.62 0 9.24 0 14 0 C13.67 0.99 13.34 1.98 13 3 C12.01 3.33 11.02 3.66 10 4 C9.67 13.9 9.34 23.8 9 34 C10.65 34 12.3 34 14 34 C14 34.99 14 35.98 14 37 C9.38 37 4.76 37 0 37 C0 36.34 0 35.68 0 35 C0.99 34.34 1.98 33.68 3 33 C3.51220541 29.89786275 3.51220541 29.89786275 3.51171875 26.2421875 C3.53864555 25.24761032 3.53864555 25.24761032 3.56611633 24.23294067 C3.62032924 22.11369197 3.65414771 19.99466975 3.6875 17.875 C3.72066367 16.43877048 3.75515245 15.0025709 3.79101562 13.56640625 C3.87605964 10.04448871 3.94281873 6.52249241 4 3 C2.68 3 1.36 3 0 3 C0 2.01 0 1.02 0 0 Z " fill="#D2CC95" transform="translate(815,1199)"/>
<path d="M0 0 C4.62 0 9.24 0 14 0 C14 0.99 14 1.98 14 3 C12.02 3.99 12.02 3.99 10 5 C10 14.57 10 24.14 10 34 C11.32 34.33 12.64 34.66 14 35 C14 35.66 14 36.32 14 37 C9.38 37 4.76 37 0 37 C0 36.34 0 35.68 0 35 C1.32 34.34 2.64 33.68 4 33 C4 23.43 4 13.86 4 4 C2.68 3.67 1.36 3.34 0 3 C0 2.01 0 1.02 0 0 Z " fill="#E3DDA2" transform="translate(1048,1199)"/>
<path d="M0 0 C9.57 0 19.14 0 29 0 C29.33 3.3 29.66 6.6 30 10 C29.01 10 28.02 10 27 10 C26.7525 8.824375 26.7525 8.824375 26.5 7.625 C25.30585738 4.91633459 25.30585738 4.91633459 23.2265625 4.2578125 C21.15808302 3.75799404 19.0963073 3.3638873 17 3 C15.68 2.67 14.36 2.34 13 2 C13 11.57 13 21.14 13 31 C12.67 31 12.34 31 12 31 C12 21.76 12 12.52 12 3 C9.69 3.33 7.38 3.66 5 4 C2.98958997 6.93449408 2.98958997 6.93449408 2 10 C1.34 10 0.68 10 0 10 C0 6.7 0 3.4 0 0 Z " fill="#C2BD8A" transform="translate(833,1199)"/>
<path d="M0 0 C-5.2747961 4.44777721 -11.03853843 7.25794808 -17.1875 10.3125 C-18.29287109 10.87517578 -19.39824219 11.43785156 -20.53710938 12.01757812 C-21.59091797 12.54416016 -22.64472656 13.07074219 -23.73046875 13.61328125 C-24.69364014 14.09579346 -25.65681152 14.57830566 -26.64916992 15.07543945 C-27.81283081 15.53309692 -27.81283081 15.53309692 -29 16 C-29.66 15.67 -30.32 15.34 -31 15 C-30.3709375 14.50371094 -29.741875 14.00742187 -29.09375 13.49609375 C-28.2378125 12.81675781 -27.381875 12.13742187 -26.5 11.4375 C-25.11748047 10.35275391 -25.11748047 10.35275391 -23.70703125 9.24609375 C-21.03410851 7.11774898 -21.03410851 7.11774898 -19.01171875 4.91015625 C-13.30477693 -1.06563508 -7.96524477 -0.76495491 0 0 Z " fill="#E8E2A5" transform="translate(963,699)"/>
<path d="M0 0 C0.99 0 1.98 0 3 0 C3.13277344 0.56589844 3.26554687 1.13179687 3.40234375 1.71484375 C3.57894531 2.44832031 3.75554687 3.18179687 3.9375 3.9375 C4.19853516 5.03384766 4.19853516 5.03384766 4.46484375 6.15234375 C4.83887569 7.99969898 4.83887569 7.99969898 6 9 C7.68608966 9.07205511 9.37500659 9.08386068 11.0625 9.0625 C11.98160156 9.05347656 12.90070313 9.04445313 13.84765625 9.03515625 C14.55792969 9.02355469 15.26820312 9.01195312 16 9 C15.34 10.32 14.68 11.64 14 13 C12.41705218 13.05437607 10.83355744 13.09296271 9.25 13.125 C8.36828125 13.14820313 7.4865625 13.17140625 6.578125 13.1953125 C4 13 4 13 0 11 C0 7.37 0 3.74 0 0 Z " fill="#D4CF97" transform="translate(1150,1224)"/>
<path d="M0 0 C8.25 0 16.5 0 25 0 C25 0.33 25 0.66 25 1 C19.06 1.495 19.06 1.495 13 2 C13 2.33 13 2.66 13 3 C10.36 3.33 7.72 3.66 5 4 C4.34 5.98 3.68 7.96 3 10 C2.01 10 1.02 10 0 10 C0 6.7 0 3.4 0 0 Z " fill="#BEBA88" transform="translate(1014,1199)"/>
<path d="M0 0 C0.66 0 1.32 0 2 0 C2.13277344 0.56589844 2.26554688 1.13179687 2.40234375 1.71484375 C2.57894531 2.44832031 2.75554688 3.18179687 2.9375 3.9375 C3.19853516 5.03384766 3.19853516 5.03384766 3.46484375 6.15234375 C3.83887569 7.99969898 3.83887569 7.99969898 5 9 C6.51469448 9.23192865 8.03754562 9.41215238 9.5625 9.5625 C10.38878906 9.64628906 11.21507812 9.73007813 12.06640625 9.81640625 C12.70449219 9.87699219 13.34257813 9.93757813 14 10 C13.67 10.99 13.34 11.98 13 13 C11.41705218 13.05437607 9.83355744 13.09296271 8.25 13.125 C7.36828125 13.14820313 6.4865625 13.17140625 5.578125 13.1953125 C3 13 3 13 -1 11 C-0.67 7.37 -0.34 3.74 0 0 Z " fill="#D9D39B" transform="translate(879,1224)"/>
<path d="M0 0 C0.33 3.3 0.66 6.6 1 10 C0.01 10 -0.98 10 -2 10 C-2.33 8.02 -2.66 6.04 -3 4 C-5.97 3.67 -8.94 3.34 -12 3 C-7.42164847 0.71082423 -5.08462738 0 0 0 Z " fill="#DAD59C" transform="translate(1043,1199)"/>
<path d="M0 0 C0.66 0.33 1.32 0.66 2 1 C-1.56685121 6.17193425 -4.98573783 8.2230589 -11 10 C-7.50640535 6.40365256 -3.88901869 3.16548033 0 0 Z " fill="#C9C48F" transform="translate(943,705)"/>
<path d="M0 0 C0.66 0.33 1.32 0.66 2 1 C1 4 1 4 -1.9375 5.625 C-2.948125 6.07875 -3.95875 6.5325 -5 7 C-5.99 7.495 -5.99 7.495 -7 8 C-5.50902342 4.2047869 -3.24299151 2.38957269 0 0 Z " fill="#D1CB95" transform="translate(886,1199)"/>
</svg>
